<?xml version="1.0" encoding="UTF-8" standalone="no"?>
<!DOCTYPE svg PUBLIC "-//W3C//DTD SVG 1.1//EN" "http://www.w3.org/Graphics/SVG/1.1/DTD/svg11.dtd">
<svg xmlns="http://www.w3.org/2000/svg" version="1.1" viewBox="0.00 0.00 512.00 512.00">
<g stroke-width="2.00" fill="none" stroke-linecap="butt">
<path stroke="#1aa4d8" vector-effect="non-scaling-stroke" d="
  M 487.77 67.32
  Q 487.04 67.20 486.77 68.63
  Q 486.68 69.10 486.20 69.10
  L 473.27 69.10
  Q 472.74 69.10 472.65 69.61
  Q 472.44 70.84 471.66 71.15"
/>
<path stroke="#1aa4d8" vector-effect="non-scaling-stroke" d="
  M 345.09 82.98
  Q 344.61 81.80 344.95 81.64
  Q 346.71 80.86 344.79 80.89
  Q 332.80 81.07 319.80 80.62"
/>
<path stroke="#2b96dd" vector-effect="non-scaling-stroke" d="
  M 480.07 102.82
  L 479.80 100.65
  Q 479.74 100.18 479.26 100.17
  L 464.27 99.90"
/>
<path stroke="#2b96dd" vector-effect="non-scaling-stroke" d="
  M 417.14 125.49
  Q 417.03 125.55 416.97 125.67
  Q 416.77 126.10 416.80 125.63
  Q 416.81 125.48 416.64 125.48
  Q 416.38 125.48 416.38 125.74
  L 416.38 126.39
  A 0.06 0.06 0.0 0 0 416.50 126.40
  Q 416.56 125.71 416.12 125.19
  Q 415.87 124.88 415.47 124.88
  L 403.13 124.88
  A 0.59 0.58 -66.2 0 0 402.73 125.04
  Q 402.47 125.27 402.33 124.99
  Q 402.12 124.53 401.68 124.80
  Q 401.51 124.91 401.39 125.05"
/>
<path stroke="#2b96dd" vector-effect="non-scaling-stroke" d="
  M 361.75 113.82
  L 361.53 113.39
  Q 361.32 112.96 361.75 112.76
  L 362.30 112.51
  Q 363.13 112.12 362.21 112.12
  L 323.99 112.12
  Q 323.69 112.12 323.55 112.38
  Q 323.45 112.59 323.17 112.62
  Q 322.83 112.66 322.70 112.35
  Q 322.64 112.18 322.46 112.12
  Q 322.08 112.01 322.21 112.38
  L 322.51 113.30"
/>
<path stroke="#2b96dd" vector-effect="non-scaling-stroke" d="
  M 185.73 113.81
  Q 184.28 114.09 185.96 112.52
  Q 186.39 112.12 185.81 112.12
  L 160.53 112.12
  Q 160.13 112.12 159.96 111.76
  Q 159.70 111.19 159.96 110.20"
/>
<path stroke="#388ae1" vector-effect="non-scaling-stroke" d="
  M 443.29 174.19
  L 442.90 173.79
  Q 442.61 173.49 442.36 173.82
  Q 442.27 173.94 442.33 174.09
  Q 442.52 174.62 442.18 174.18
  Q 442.10 174.07 441.99 174.01
  Q 441.75 173.88 441.47 173.89
  Q 433.32 174.26 425.04 173.31"
/>
<path stroke="#388ae1" vector-effect="non-scaling-stroke" d="
  M 405.20 167.29
  L 404.70 165.41
  Q 404.56 164.91 404.05 164.89
  Q 394.09 164.46 383.72 165.48"
/>
<path stroke="#477de5" vector-effect="non-scaling-stroke" d="
  M 424.38 220.72
  Q 407.95 221.35 390.93 220.41"
/>
<path stroke="#477de5" vector-effect="non-scaling-stroke" d="
  M 373.81 220.05
  Q 373.44 219.62 373.27 219.77
  Q 373.15 219.87 373.04 219.97
  Q 372.89 220.10 372.73 220.00
  Q 372.54 219.89 372.33 219.89
  Q 363.63 219.86 355.28 219.89
  A 0.46 0.46 0.0 0 0 354.87 220.18
  Q 354.77 220.44 354.85 220.65
  Q 354.96 220.91 354.67 220.90
  Q 354.30 220.90 353.93 220.47"
/>
<path stroke="#388ae1" vector-effect="non-scaling-stroke" d="
  M 136.53 151.39
  Q 135.42 151.76 134.91 152.75
  Q 134.59 153.38 134.05 152.92
  Q 133.87 152.76 133.65 152.86
  Q 133.09 153.11 132.49 153.13
  Q 123.93 153.48 115.12 152.63"
/>
<path stroke="#6364ee" vector-effect="non-scaling-stroke" d="
  M 426.07 279.99
  L 409.97 279.88"
/>
<path stroke="#6364ee" vector-effect="non-scaling-stroke" d="
  M 358.05 283.84
  Q 357.81 283.41 357.87 282.96
  Q 357.89 282.78 357.79 282.93
  Q 357.76 282.97 357.72 283.01
  Q 357.60 283.15 357.42 283.15
  Q 347.86 283.07 338.96 283.15
  Q 338.82 283.15 338.70 283.23
  A 0.40 0.40 0.0 0 1 338.24 283.23
  Q 337.77 282.91 337.91 282.20"
/>
<path stroke="#6364ee" vector-effect="non-scaling-stroke" d="
  M 324.53 280.53
  Q 324.19 279.88 323.19 279.99
  Q 322.04 280.11 321.83 280.10
  Q 312.21 279.84 302.74 280.52"
/>
<path stroke="#477de5" vector-effect="non-scaling-stroke" d="
  M 103.71 210.73
  Q 103.22 210.83 103.35 210.26
  Q 103.43 209.85 103.01 209.85
  L 87.44 209.68"
/>
<path stroke="#6364ee" vector-effect="non-scaling-stroke" d="
  M 97.97 269.81
  Q 97.38 268.81 96.74 268.34
  Q 96.12 267.89 96.12 268.66
  L 96.12 269.51
  Q 96.12 270.13 95.50 270.11
  L 81.95 269.69"
/>
<path stroke="#7f4cf6" vector-effect="non-scaling-stroke" d="
  M 196.33 389.39
  Q 168.28 388.42 146.50 388.88
  Q 146.20 388.89 146.16 389.18
  Q 146.12 389.38 146.08 389.18
  Q 146.02 388.93 145.76 388.87
  Q 145.12 388.73 144.83 389.27"
/>
<path stroke="#7f4cf6" vector-effect="non-scaling-stroke" d="
  M 109.37 374.73
  Q 107.90 375.97 107.25 375.97
  Q 99.90 375.91 92.82 376.40"
/>
<path stroke="#7f4cf6" vector-effect="non-scaling-stroke" d="
  M 55.36 393.23
  L 54.51 392.25
  Q 54.19 391.88 53.71 391.88
  Q 46.92 391.88 40.13 391.88
  Q 39.76 391.88 39.45 392.06
  Q 39.01 392.32 38.93 392.83
  Q 38.85 393.27 38.44 393.11
  L 38.04 392.95"
/>
<path stroke="#7f4cf6" vector-effect="non-scaling-stroke" d="
  M 352.03 398.48
  Q 351.92 397.99 351.59 397.98
  Q 351.42 397.98 351.35 398.13
  Q 351.30 398.26 351.18 398.32
  Q 350.82 398.51 350.64 398.15
  Q 350.55 397.98 350.37 397.92
  Q 350.24 397.88 350.10 397.88
  Q 336.92 397.88 323.75 397.88
  Q 323.57 397.88 323.47 397.75
  Q 323.27 397.50 323.58 397.45
  Q 324.46 397.29 325.12 396.67
  Q 325.48 396.34 325.96 396.24
  Q 327.58 395.90 327.54 394.65"
/>
<path stroke="#7f4cf6" vector-effect="non-scaling-stroke" d="
  M 239.61 396.09
  Q 239.67 395.32 240.01 394.75
  Q 240.10 394.59 240.30 394.62
  Q 240.36 394.63 240.40 394.66
  Q 240.91 394.97 240.84 394.39
  Q 240.82 394.21 240.85 394.04
  Q 240.93 393.56 241.37 393.35
  Q 241.93 393.07 242.15 392.41
  Q 242.32 391.88 241.77 391.88
  L 221.95 391.88
  Q 221.40 391.88 221.38 391.33
  Q 221.35 390.39 220.84 390.76"
/>
</g>
<path fill="#11acd5" d="
  M 487.77 67.32
  Q 487.04 67.20 486.77 68.63
  Q 486.68 69.10 486.20 69.10
  L 473.27 69.10
  Q 472.74 69.10 472.65 69.61
  Q 472.44 70.84 471.66 71.15
  C 472.66 63.10 472.06 52.13 466.47 46.36
  C 459.42 39.08 447.93 39.03 438.45 40.64
  Q 419.53 43.86 400.25 52.55
  Q 371.46 65.53 345.09 82.98
  Q 344.61 81.80 344.95 81.64
  Q 346.71 80.86 344.79 80.89
  Q 332.80 81.07 319.80 80.62
  C 345.87 62.38 376.38 44.27 407.25 32.58
  C 430.58 23.75 470.07 15.21 483.71 43.78
  Q 488.48 53.78 487.77 67.32
  Z"
/>
<path fill="#239cda" d="
  M 487.77 67.32
  Q 486.67 85.40 480.07 102.82
  L 479.80 100.65
  Q 479.74 100.18 479.26 100.17
  L 464.27 99.90
  Q 469.58 85.57 471.66 71.15
  Q 472.44 70.84 472.65 69.61
  Q 472.74 69.10 473.27 69.10
  L 486.20 69.10
  Q 486.68 69.10 486.77 68.63
  Q 487.04 67.20 487.77 67.32
  Z"
/>
<path fill="#239cda" d="
  M 319.80 80.62
  Q 332.80 81.07 344.79 80.89
  Q 346.71 80.86 344.95 81.64
  Q 344.61 81.80 345.09 82.98
  L 325.16 96.39
  Q 324.57 96.79 325.22 97.08
  Q 333.33 100.70 340.60 104.89
  Q 341.19 105.24 341.81 104.94
  C 361.78 95.38 399.67 81.74 413.49 106.97
  Q 417.66 114.59 417.14 125.49
  Q 417.03 125.55 416.97 125.67
  Q 416.77 126.10 416.80 125.63
  Q 416.81 125.48 416.64 125.48
  Q 416.38 125.48 416.38 125.74
  L 416.38 126.39
  A 0.06 0.06 0.0 0 0 416.50 126.40
  Q 416.56 125.71 416.12 125.19
  Q 415.87 124.88 415.47 124.88
  L 403.13 124.88
  A 0.59 0.58 -66.2 0 0 402.73 125.04
  Q 402.47 125.27 402.33 124.99
  Q 402.12 124.53 401.68 124.80
  Q 401.51 124.91 401.39 125.05
  Q 401.37 119.02 400.47 116.76
  Q 397.27 108.75 388.48 108.48
  C 379.50 108.19 370.12 110.67 361.75 113.82
  L 361.53 113.39
  Q 361.32 112.96 361.75 112.76
  L 362.30 112.51
  Q 363.13 112.12 362.21 112.12
  L 323.99 112.12
  Q 323.69 112.12 323.55 112.38
  Q 323.45 112.59 323.17 112.62
  Q 322.83 112.66 322.70 112.35
  Q 322.64 112.18 322.46 112.12
  Q 322.08 112.01 322.21 112.38
  L 322.51 113.30
  C 278.83 92.80 229.14 92.82 185.73 113.81
  Q 184.28 114.09 185.96 112.52
  Q 186.39 112.12 185.81 112.12
  L 160.53 112.12
  Q 160.13 112.12 159.96 111.76
  Q 159.70 111.19 159.96 110.20
  C 203.31 81.85 256.61 74.69 305.92 89.73
  A 1.36 1.35 -53.3 0 0 307.10 89.55
  L 319.80 80.62
  Z"
/>
<path fill="#328fdf" d="
  M 480.07 102.82
  C 471.00 127.79 457.60 152.03 443.29 174.19
  L 442.90 173.79
  Q 442.61 173.49 442.36 173.82
  Q 442.27 173.94 442.33 174.09
  Q 442.52 174.62 442.18 174.18
  Q 442.10 174.07 441.99 174.01
  Q 441.75 173.88 441.47 173.89
  Q 433.32 174.26 425.04 173.31
  C 440.41 149.89 454.15 125.70 464.27 99.90
  L 479.26 100.17
  Q 479.74 100.18 479.80 100.65
  L 480.07 102.82
  Z"
/>
<path fill="#328fdf" d="
  M 159.96 110.20
  Q 159.70 111.19 159.96 111.76
  Q 160.13 112.12 160.53 112.12
  L 185.81 112.12
  Q 186.39 112.12 185.96 112.52
  Q 184.28 114.09 185.73 113.81
  Q 157.44 127.77 136.53 151.39
  Q 135.42 151.76 134.91 152.75
  Q 134.59 153.38 134.05 152.92
  Q 133.87 152.76 133.65 152.86
  Q 133.09 153.11 132.49 153.13
  Q 123.93 153.48 115.12 152.63
  Q 134.10 127.00 159.96 110.20
  Z"
/>
<path fill="#328fdf" d="
  M 361.75 113.82
  L 357.74 115.49
  Q 357.22 115.71 357.68 116.05
  Q 378.63 131.61 393.99 152.42
  A 0.16 0.16 0.0 0 0 394.27 152.39
  Q 400.16 139.26 401.39 125.05
  Q 401.51 124.91 401.68 124.80
  Q 402.12 124.53 402.33 124.99
  Q 402.47 125.27 402.73 125.04
  A 0.59 0.58 -66.2 0 1 403.13 124.88
  L 415.47 124.88
  Q 415.87 124.88 416.12 125.19
  Q 416.56 125.71 416.50 126.40
  A 0.06 0.06 0.0 0 1 416.38 126.39
  L 416.38 125.74
  Q 416.38 125.48 416.64 125.48
  Q 416.81 125.48 416.80 125.63
  Q 416.77 126.10 416.97 125.67
  Q 417.03 125.55 417.14 125.49
  C 416.72 139.79 411.44 154.48 405.20 167.29
  L 404.70 165.41
  Q 404.56 164.91 404.05 164.89
  Q 394.09 164.46 383.72 165.48
  Q 360.35 132.05 322.51 113.30
  L 322.21 112.38
  Q 322.08 112.01 322.46 112.12
  Q 322.64 112.18 322.70 112.35
  Q 322.83 112.66 323.17 112.62
  Q 323.45 112.59 323.55 112.38
  Q 323.69 112.12 323.99 112.12
  L 362.21 112.12
  Q 363.13 112.12 362.30 112.51
  L 361.75 112.76
  Q 361.32 112.96 361.53 113.39
  L 361.75 113.82
  Z"
/>
<path fill="#3e84e2" d="
  M 136.53 151.39
  Q 113.68 177.47 103.71 210.73
  Q 103.22 210.83 103.35 210.26
  Q 103.43 209.85 103.01 209.85
  L 87.44 209.68
  Q 96.32 177.84 115.12 152.63
  Q 123.93 153.48 132.49 153.13
  Q 133.09 153.11 133.65 152.86
  Q 133.87 152.76 134.05 152.92
  Q 134.59 153.38 134.91 152.75
  Q 135.42 151.76 136.53 151.39
  Z"
/>
<path fill="#3e84e2" d="
  M 405.20 167.29
  L 404.87 168.29
  Q 404.70 168.77 404.96 169.20
  Q 410.13 178.11 414.36 188.19
  A 0.28 0.28 0.0 0 0 414.85 188.24
  L 425.04 173.31
  Q 433.32 174.26 441.47 173.89
  Q 441.75 173.88 441.99 174.01
  Q 442.10 174.07 442.18 174.18
  Q 442.52 174.62 442.33 174.09
  Q 442.27 173.94 442.36 173.82
  Q 442.61 173.49 442.90 173.79
  L 443.29 174.19
  L 421.47 206.17
  A 1.87 1.87 0.0 0 0 421.20 207.67
  L 424.38 220.72
  Q 407.95 221.35 390.93 220.41
  L 403.06 204.45
  Q 403.37 204.04 403.20 203.56
  Q 400.15 194.83 395.94 186.21
  A 0.27 0.27 0.0 0 0 395.46 186.20
  Q 385.53 203.59 373.81 220.05
  Q 373.44 219.62 373.27 219.77
  Q 373.15 219.87 373.04 219.97
  Q 372.89 220.10 372.73 220.00
  Q 372.54 219.89 372.33 219.89
  Q 363.63 219.86 355.28 219.89
  A 0.46 0.46 0.0 0 0 354.87 220.18
  Q 354.77 220.44 354.85 220.65
  Q 354.96 220.91 354.67 220.90
  Q 354.30 220.90 353.93 220.47
  Q 372.01 196.44 386.32 170.09
  A 0.86 0.85 -47.9 0 0 386.28 169.20
  L 383.72 165.48
  Q 394.09 164.46 404.05 164.89
  Q 404.56 164.91 404.70 165.41
  L 405.20 167.29
  Z"
/>
<path fill="#4f75e8" d="
  M 87.44 209.68
  L 103.01 209.85
  Q 103.43 209.85 103.35 210.26
  Q 103.22 210.83 103.71 210.73
  Q 95.30 239.66 97.97 269.81
  Q 97.38 268.81 96.74 268.34
  Q 96.12 267.89 96.12 268.66
  L 96.12 269.51
  Q 96.12 270.13 95.50 270.11
  L 81.95 269.69
  Q 79.56 238.50 87.44 209.68
  Z"
/>
<path fill="#4f75e8" d="
  M 373.81 220.05
  Q 351.12 251.92 324.53 280.53
  Q 324.19 279.88 323.19 279.99
  Q 322.04 280.11 321.83 280.10
  Q 312.21 279.84 302.74 280.52
  Q 330.09 252.20 353.93 220.47
  Q 354.30 220.90 354.67 220.90
  Q 354.96 220.91 354.85 220.65
  Q 354.77 220.44 354.87 220.18
  A 0.46 0.46 0.0 0 1 355.28 219.89
  Q 363.63 219.86 372.33 219.89
  Q 372.54 219.89 372.73 220.00
  Q 372.89 220.10 373.04 219.97
  Q 373.15 219.87 373.27 219.77
  Q 373.44 219.62 373.81 220.05
  Z"
/>
<path fill="#4f75e8" d="
  M 390.93 220.41
  Q 407.95 221.35 424.38 220.72
  Q 430.30 249.62 426.07 279.99
  L 409.97 279.88
  Q 414.23 251.67 408.81 224.07
  A 0.34 0.34 0.0 0 0 408.21 223.93
  Q 384.46 254.90 358.05 283.84
  Q 357.81 283.41 357.87 282.96
  Q 357.89 282.78 357.79 282.93
  Q 357.76 282.97 357.72 283.01
  Q 357.60 283.15 357.42 283.15
  Q 347.86 283.07 338.96 283.15
  Q 338.82 283.15 338.70 283.23
  A 0.40 0.40 0.0 0 1 338.24 283.23
  Q 337.77 282.91 337.91 282.20
  Q 366.16 251.87 390.93 220.41
  Z"
/>
<path fill="#7753f3" d="
  M 97.97 269.81
  C 102.51 317.90 128.58 360.47 168.51 386.86
  A 1.10 1.09 -42.7 0 0 169.64 386.90
  Q 202.68 368.75 232.31 345.10
  Q 269.60 315.34 302.74 280.52
  Q 312.21 279.84 321.83 280.10
  Q 322.04 280.11 323.19 279.99
  Q 324.19 279.88 324.53 280.53
  Q 276.86 333.06 219.46 374.46
  Q 207.10 383.38 196.33 389.39
  Q 168.28 388.42 146.50 388.88
  Q 146.20 388.89 146.16 389.18
  Q 146.12 389.38 146.08 389.18
  Q 146.02 388.93 145.76 388.87
  Q 145.12 388.73 144.83 389.27
  Q 128.35 375.57 115.30 358.42
  Q 115.00 358.02 114.80 358.48
  Q 111.27 366.71 109.37 374.73
  Q 107.90 375.97 107.25 375.97
  Q 99.90 375.91 92.82 376.40
  Q 96.10 359.15 104.27 342.68
  A 1.59 1.57 -47.4 0 0 104.22 341.18
  Q 99.99 333.92 96.44 325.87
  Q 96.16 325.23 95.75 325.80
  Q 72.69 357.93 55.36 393.23
  L 54.51 392.25
  Q 54.19 391.88 53.71 391.88
  Q 46.92 391.88 40.13 391.88
  Q 39.76 391.88 39.45 392.06
  Q 39.01 392.32 38.93 392.83
  Q 38.85 393.27 38.44 393.11
  L 38.04 392.95
  C 51.54 362.85 69.51 334.30 88.97 307.66
  Q 89.27 307.25 89.12 306.77
  Q 83.47 288.10 81.95 269.69
  L 95.50 270.11
  Q 96.12 270.13 96.12 269.51
  L 96.12 268.66
  Q 96.12 267.89 96.74 268.34
  Q 97.38 268.81 97.97 269.81
  Z"
/>
<path fill="#7753f3" d="
  M 409.97 279.88
  L 426.07 279.99
  Q 421.11 314.37 403.33 344.06
  Q 383.78 376.72 352.03 398.48
  Q 351.92 397.99 351.59 397.98
  Q 351.42 397.98 351.35 398.13
  Q 351.30 398.26 351.18 398.32
  Q 350.82 398.51 350.64 398.15
  Q 350.55 397.98 350.37 397.92
  Q 350.24 397.88 350.10 397.88
  Q 336.92 397.88 323.75 397.88
  Q 323.57 397.88 323.47 397.75
  Q 323.27 397.50 323.58 397.45
  Q 324.46 397.29 325.12 396.67
  Q 325.48 396.34 325.96 396.24
  Q 327.58 395.90 327.54 394.65
  Q 359.35 377.73 380.41 349.66
  Q 403.79 318.48 409.97 279.88
  Z"
/>
<path fill="#7753f3" d="
  M 337.91 282.20
  Q 337.77 282.91 338.24 283.23
  A 0.40 0.40 0.0 0 0 338.70 283.23
  Q 338.82 283.15 338.96 283.15
  Q 347.86 283.07 357.42 283.15
  Q 357.60 283.15 357.72 283.01
  Q 357.76 282.97 357.79 282.93
  Q 357.89 282.78 357.87 282.96
  Q 357.81 283.41 358.05 283.84
  Q 303.12 344.51 239.61 396.09
  Q 239.67 395.32 240.01 394.75
  Q 240.10 394.59 240.30 394.62
  Q 240.36 394.63 240.40 394.66
  Q 240.91 394.97 240.84 394.39
  Q 240.82 394.21 240.85 394.04
  Q 240.93 393.56 241.37 393.35
  Q 241.93 393.07 242.15 392.41
  Q 242.32 391.88 241.77 391.88
  L 221.95 391.88
  Q 221.40 391.88 221.38 391.33
  Q 221.35 390.39 220.84 390.76
  Q 283.44 340.98 337.91 282.20
  Z"
/>
<path fill="#8645f8" d="
  M 109.37 374.73
  C 108.04 381.33 106.78 388.35 109.08 394.54
  C 114.34 408.70 142.26 399.12 151.63 395.02
  A 0.29 0.29 0.0 0 0 151.69 394.53
  L 144.83 389.27
  Q 145.12 388.73 145.76 388.87
  Q 146.02 388.93 146.08 389.18
  Q 146.12 389.38 146.16 389.18
  Q 146.20 388.89 146.50 388.88
  Q 168.28 388.42 196.33 389.39
  L 185.59 396.13
  A 0.30 0.30 0.0 0 0 185.62 396.65
  Q 194.17 400.78 202.92 403.84
  Q 203.45 404.03 203.89 403.69
  L 220.84 390.76
  Q 221.35 390.39 221.38 391.33
  Q 221.40 391.88 221.95 391.88
  L 241.77 391.88
  Q 242.32 391.88 242.15 392.41
  Q 241.93 393.07 241.37 393.35
  Q 240.93 393.56 240.85 394.04
  Q 240.82 394.21 240.84 394.39
  Q 240.91 394.97 240.40 394.66
  Q 240.36 394.63 240.30 394.62
  Q 240.10 394.59 240.01 394.75
  Q 239.67 395.32 239.61 396.09
  L 223.17 408.96
  A 0.28 0.28 0.0 0 0 223.29 409.46
  Q 278.30 419.89 327.54 394.65
  Q 327.58 395.90 325.96 396.24
  Q 325.48 396.34 325.12 396.67
  Q 324.46 397.29 323.58 397.45
  Q 323.27 397.50 323.47 397.75
  Q 323.57 397.88 323.75 397.88
  Q 336.92 397.88 350.10 397.88
  Q 350.24 397.88 350.37 397.92
  Q 350.55 397.98 350.64 398.15
  Q 350.82 398.51 351.18 398.32
  Q 351.30 398.26 351.35 398.13
  Q 351.42 397.98 351.59 397.98
  Q 351.92 397.99 352.03 398.48
  C 309.16 427.62 256.74 435.71 206.72 421.81
  Q 206.23 421.67 205.81 421.97
  C 183.91 437.56 161.62 452.18 138.70 464.38
  Q 115.92 476.50 95.06 483.13
  C 75.45 489.36 46.10 493.72 31.50 475.12
  C 14.47 453.41 27.98 414.92 38.04 392.95
  L 38.44 393.11
  Q 38.85 393.27 38.93 392.83
  Q 39.01 392.32 39.45 392.06
  Q 39.76 391.88 40.13 391.88
  Q 46.92 391.88 53.71 391.88
  Q 54.19 391.88 54.51 392.25
  L 55.36 393.23
  C 47.65 409.08 25.36 461.28 51.77 470.76
  Q 57.40 472.78 63.67 472.65
  Q 75.82 472.41 89.32 468.19
  Q 111.25 461.35 135.78 447.94
  Q 162.09 433.57 187.59 415.43
  A 0.22 0.22 0.0 0 0 187.55 415.05
  Q 177.92 410.94 168.41 405.54
  Q 167.91 405.26 167.40 405.51
  C 152.88 412.71 133.71 419.50 117.91 417.47
  C 95.54 414.59 89.23 396.32 92.82 376.40
  Q 99.90 375.91 107.25 375.97
  Q 107.90 375.97 109.37 374.73
  Z"
/>
</svg>
